<?xml version="1.0" encoding="utf-8"?>
<!-- Generator: Adobe Illustrator 16.0.0, SVG Export Plug-In . SVG Version: 6.00 Build 0)  -->
<!DOCTYPE svg PUBLIC "-//W3C//DTD SVG 1.1//EN" "http://www.w3.org/Graphics/SVG/1.1/DTD/svg11.dtd">
<svg version="1.1" id="Layer_1" xmlns="http://www.w3.org/2000/svg" xmlns:xlink="http://www.w3.org/1999/xlink" x="0px" y="0px"
	 width="1080px" height="1080px" viewBox="0 0 1080 1080" enable-background="new 0 0 1080 1080" xml:space="preserve">
<g>
	<path fill="#EBEEF2" d="M1021.901,523.379c0,264.445-214.387,478.831-478.831,478.831c-264.448,0-478.827-214.386-478.827-478.831
		c0-264.447,214.379-478.826,478.827-478.826C807.515,44.553,1021.901,258.932,1021.901,523.379z"/>
	<path fill="#D3430B" d="M11.077,598.363h1063.99L974.485,487.564c-18.799-20.693-55.262-33.604-94.932-33.604H206.582
		c-39.668,0-76.131,12.911-94.924,33.604L11.077,598.363z"/>
	<linearGradient id="SVGID_1_" gradientUnits="userSpaceOnUse" x1="98.2227" y1="523.3794" x2="987.9189" y2="523.3794">
		<stop  offset="0" style="stop-color:#F54017"/>
		<stop  offset="1" style="stop-color:#FF9510"/>
	</linearGradient>
	<circle fill="url(#SVGID_1_)" cx="543.071" cy="523.379" r="444.848"/>
	<linearGradient id="SVGID_2_" gradientUnits="userSpaceOnUse" x1="152.5117" y1="523.3818" x2="933.6318" y2="523.3818">
		<stop  offset="0" style="stop-color:#141D70"/>
		<stop  offset="1" style="stop-color:#0833C5"/>
	</linearGradient>
	<path fill="url(#SVGID_2_)" d="M933.632,523.379c0,215.701-174.867,390.563-390.562,390.563
		c-215.699,0-390.559-174.861-390.559-390.563c0-215.701,174.859-390.557,390.559-390.557
		C758.765,132.822,933.632,307.678,933.632,523.379z"/>
	
		<linearGradient id="SVGID_3_" gradientUnits="userSpaceOnUse" x1="716.2363" y1="-5.8643" x2="1455.7402" y2="-5.8643" gradientTransform="matrix(0 -1 1 0 556.3213 1618.0645)">
		<stop  offset="0" style="stop-color:#141D70"/>
		<stop  offset="1" style="stop-color:#0833C5"/>
	</linearGradient>
	<path fill="url(#SVGID_3_)" d="M550.456,162.324c204.205,0,369.754,165.545,369.754,369.75
		c0,204.214-165.549,369.754-369.754,369.754c-204.21,0-369.752-165.54-369.752-369.754
		C180.704,327.869,346.246,162.324,550.456,162.324z"/>
	<g>
		
			<image overflow="visible" opacity="0.75" width="658" height="894" xlink:href="7575D5B.png"  transform="matrix(0.24 0 0 0.24 454.873 167.2715)">
		</image>
		<g>
			<g>
				<path fill="#F2F5F9" d="M586.085,266.731c-4.678-3.351-9.988-6.056-15.982-8.079c-5.967-2-12.104-3.731-18.395-5.162
					c-5.044-1.178-9.97-2.239-14.876-3.274v-33.763c3.609,0.735,6.963,1.858,9.979,3.439c5.693,2.908,8.848,8.568,9.439,16.877
					h41.061c-0.813-9.747-3.285-17.796-7.43-24.181c-4.184-6.387-9.393-11.512-15.691-15.376
					c-6.293-3.834-13.424-6.586-21.432-8.214c-5.209-1.06-10.547-1.643-15.944-2.008v-18.721h-16.191v18.618
					c-5.951,0.316-11.85,0.877-17.619,1.944c-8.111,1.527-15.408,4.183-21.889,7.929c-6.49,3.747-11.717,8.924-15.678,15.495
					c-3.937,6.615-5.904,14.876-5.904,24.805c0,6.895,1.408,12.728,4.246,17.471c2.837,4.792,6.583,8.743,11.248,11.897
					c4.672,3.14,9.984,5.66,15.985,7.598c5.976,1.959,12.11,3.566,18.396,5.027c3.953,0.83,7.684,1.645,11.215,2.45v40.974
					c-0.947-0.183-1.904-0.293-2.852-0.53c-3.962-1.028-7.449-2.577-10.499-4.711c-3.054-2.12-5.519-4.885-7.447-8.222
					c-1.944-3.352-2.909-7.368-2.909-12h-41.043c0.41,10.308,2.798,19.06,7.154,26.143c4.357,7.107,9.922,12.862,16.735,17.201
					c6.782,4.364,14.544,7.471,23.256,9.273c5.772,1.201,11.669,1.866,17.612,2.292v18.72h16.191v-18.657
					c6.513-0.363,12.948-1.042,19.272-2.401c8.617-1.788,16.303-4.849,22.988-9.108c6.672-4.244,12.094-9.896,16.252-16.87
					c4.176-7.019,6.248-15.684,6.248-26.023c0-7.306-1.426-13.424-4.271-18.388C594.476,274.225,590.743,270.061,586.085,266.731z
					 M518.087,245.427c-4.56-1.518-8.269-3.51-11.083-5.928c-2.863-2.428-4.253-5.583-4.253-9.44c0-3.241,0.79-5.818,2.426-7.731
					c1.604-1.944,3.581-3.399,5.937-4.411c2.327-1.019,4.902-1.683,7.732-1.976c0.649-0.072,1.179-0.063,1.803-0.11v30.364
					C519.795,245.933,518.878,245.68,518.087,245.427z M555.659,312.969c-1.843,2.528-4.117,4.554-6.869,6.056
					c-2.718,1.534-5.753,2.647-9.106,3.367c-0.964,0.207-1.904,0.318-2.869,0.476v-37.195c3.199,0.979,6.137,2.008,8.626,3.108
					c4.156,1.833,7.35,3.903,9.587,6.243c2.22,2.325,3.337,5.124,3.337,8.365C558.38,307.222,557.503,310.423,555.659,312.969z"/>
			</g>
		</g>
	</g>
	
		<linearGradient id="SVGID_4_" gradientUnits="userSpaceOnUse" x1="1096.1533" y1="408.0347" x2="2160.1377" y2="408.0347" gradientTransform="matrix(-1 0 0 -1 2171.2207 1128.2422)">
		<stop  offset="0" style="stop-color:#F54017"/>
		<stop  offset="1" style="stop-color:#FF9510"/>
	</linearGradient>
	<path fill="url(#SVGID_4_)" d="M11.083,598.363h1063.984L974.485,785.33c-18.799,34.933-55.262,56.722-94.932,56.722H206.582
		c-39.668,0-76.131-21.789-94.924-56.722L11.083,598.363z"/>
	<text transform="matrix(1 0 0 1 124.1445 779.4844)" fill="#F2F5F9" font-family="'Poppins-Black'" font-size="168.4839">PRODUTO</text>
	<g>
		
			<image overflow="visible" opacity="0.75" width="2899" height="1330" xlink:href="7575D59.png"  transform="matrix(0.24 0 0 0.24 198.3657 352.0547)">
		</image>
		<g>
			<text transform="matrix(1 0 0 1 213.3657 526.9307)" fill="#EBEEF2" font-family="'Poppins-Black'" font-size="194.837">PREÇO</text>
		</g>
	</g>
</g>
</svg>
