<?xml version="1.0" encoding="utf-8"?>
<!-- Generator: Adobe Illustrator 16.0.0, SVG Export Plug-In . SVG Version: 6.00 Build 0)  -->
<!DOCTYPE svg PUBLIC "-//W3C//DTD SVG 1.1//EN" "http://www.w3.org/Graphics/SVG/1.1/DTD/svg11.dtd">
<svg version="1.1" id="Layer_1" xmlns="http://www.w3.org/2000/svg" xmlns:xlink="http://www.w3.org/1999/xlink" x="0px" y="0px"
	 width="1080px" height="1080px" viewBox="0 0 1080 1080" enable-background="new 0 0 1080 1080" xml:space="preserve">
<linearGradient id="SVGID_1_" gradientUnits="userSpaceOnUse" x1="188.4761" y1="614.8438" x2="904.5684" y2="614.8438">
	<stop  offset="0" style="stop-color:#141D70"/>
	<stop  offset="1" style="stop-color:#0833C5"/>
</linearGradient>
<rect x="188.476" y="288.275" fill="url(#SVGID_1_)" width="716.092" height="653.137"/>
<linearGradient id="SVGID_2_" gradientUnits="userSpaceOnUse" x1="83.4932" y1="531.7964" x2="996.5283" y2="531.7964">
	<stop  offset="0" style="stop-color:#F54017"/>
	<stop  offset="1" style="stop-color:#FF9510"/>
</linearGradient>
<path fill="url(#SVGID_2_)" d="M686.735,163.791c-6.238-76.37-70.004-136.466-148.006-136.466
	c-77.981,0-141.767,60.081-148.001,136.466c-0.264,3.235-2.939,5.738-6.183,5.738H178.088c-10.73,0-19.688,8.191-20.647,18.88
	l-73.864,825.288c-1.086,12.125,8.468,22.572,20.646,22.572h871.572c12.181,0,21.734-10.447,20.649-22.572l-73.868-825.288
	c-0.955-10.688-9.913-18.88-20.646-18.88H692.918C689.671,169.526,686.999,167.026,686.735,163.791z M426.072,160.166
	c7.723-55.316,55.208-98.057,112.64-98.057c57.433,0,104.924,42.738,112.662,98.053c0.691,4.962-3.244,9.364-8.252,9.364H434.32
	C429.315,169.526,425.378,165.126,426.072,160.166z M701.009,434.073c12.318,10.35,60.2-14.729,70.548-2.412
	c10.321,12.286-22.652,55.102-14.575,69.068c8.009,13.84,61.598,6.61,67.133,21.832c5.45,14.955-40.198,43.834-37.393,59.869
	c2.73,15.592,55.555,27.164,55.555,43.537s-52.824,27.945-55.555,43.537c-2.806,16.031,42.843,44.92,37.393,59.871
	c-5.535,15.222-59.124,7.992-67.133,21.83c-8.077,13.971,24.894,56.787,14.572,69.068c-10.345,12.318-58.23-12.761-70.545-2.413
	c-12.287,10.317,4.142,61.828-9.831,69.909c-13.839,8.009-50.252-31.899-65.478-26.357c-14.956,5.443-17.189,59.472-33.221,62.28
	c-15.593,2.734-36.098-47.246-52.473-47.246c-16.372,0-36.879,49.98-52.468,47.246c-16.035-2.809-18.271-56.837-33.224-62.28
	c-15.227-5.542-51.645,34.363-65.483,26.357c-13.968-8.081,2.458-59.592-9.823-69.909c-12.32-10.348-60.205,14.731-70.551,2.413
	c-10.318-12.285,22.653-55.098,14.572-69.071c-8.005-13.835-61.592-6.609-67.131-21.827c-5.443-14.954,40.203-43.84,37.395-59.871
	c-2.73-15.59-55.555-27.164-55.555-43.537c0-16.37,52.824-27.945,55.555-43.534c2.809-16.034-42.838-44.917-37.395-59.874
	c5.539-15.219,59.125-7.992,67.131-21.829c8.081-13.966-24.89-56.782-14.572-69.068c10.347-12.317,58.233,12.762,70.551,2.412
	c12.286-10.316-4.145-61.826,9.824-69.906c13.837-8.007,50.261,31.897,65.483,26.356c14.952-5.444,17.188-59.473,33.222-62.28
	c15.589-2.732,36.096,47.246,52.468,47.246c16.375,0,36.88-49.979,52.473-47.246c16.031,2.807,18.265,56.836,33.221,62.28
	c15.226,5.541,51.643-34.364,65.481-26.356C705.15,372.243,688.726,423.756,701.009,434.073z"/>
<g>
	<g>
		<g>
			<path fill="#F2F5F9" d="M540.021,469.345c5.488,0,9.982-4.493,9.982-9.983v-56.936c0-5.488-4.494-9.98-9.982-9.98
				c-5.488,0-9.98,4.493-9.98,9.98v56.929C530.041,464.842,534.533,469.345,540.021,469.345z"/>
			<path fill="#F2F5F9" d="M540.021,784.623c-5.488,0-9.98,4.492-9.98,9.982v56.94c0,5.482,4.492,9.977,9.98,9.977
				c5.488,0,9.982-4.494,9.982-9.977v-56.935C550.003,789.127,545.509,784.623,540.021,784.623z"/>
			<path fill="#F2F5F9" d="M388.299,461.149c-3.881-3.879-10.234-3.879-14.111,0c-3.885,3.888-3.885,10.236,0,14.113l40.251,40.243
				c3.878,3.878,10.232,3.878,14.11,0.01c3.879-3.886,3.879-10.223-0.007-14.112L388.299,461.149z"/>
			<path fill="#F2F5F9" d="M665.604,738.465c-3.878-3.877-10.235-3.877-14.113-0.011c-3.881,3.889-3.881,10.224,0.007,14.114
				l40.246,40.251c3.881,3.879,10.232,3.879,14.113,0c3.877-3.887,3.877-10.232,0-14.111L665.604,738.465z"/>
			<path fill="#F2F5F9" d="M382.373,626.984c0-5.487-4.494-9.979-9.982-9.979h-56.937c-5.491,0-9.98,4.492-9.98,9.979
				c0,5.489,4.489,9.981,9.98,9.981h56.937C377.878,636.966,382.373,632.474,382.373,626.984z"/>
			<path fill="#F2F5F9" d="M764.565,617.005h-56.935c-5.491,0-9.982,4.492-9.982,9.979c0,5.489,4.491,9.981,9.982,9.981h56.935
				c5.494,0,9.979-4.492,9.979-9.981C774.544,621.497,770.06,617.005,764.565,617.005z"/>
			<path fill="#F2F5F9" d="M414.438,738.465l-40.251,40.243c-3.885,3.879-3.885,10.225,0,14.111c3.877,3.879,10.23,3.879,14.111,0
				l40.243-40.251c3.886-3.891,3.886-10.226,0.007-14.114C424.67,734.588,418.316,734.588,414.438,738.465z"/>
			<path fill="#F2F5F9" d="M665.583,515.515l40.273-40.243c3.877-3.879,3.877-10.235,0-14.112c-3.881-3.877-10.232-3.877-14.113,0
				l-40.26,40.254c-3.892,3.878-3.892,10.233-0.014,14.114C655.351,519.383,661.705,519.383,665.583,515.515z"/>
			<path fill="#F2F5F9" d="M610.73,623.622c-5.769-4.131-12.318-7.463-19.707-9.959c-7.358-2.467-14.921-4.603-22.677-6.365
				c-6.221-1.452-12.294-2.762-18.344-4.035v-41.626c4.453,0.907,8.588,2.292,12.309,4.24c7.019,3.584,10.906,10.563,11.636,20.806
				h50.622c-1-12.017-4.056-21.937-9.16-29.813c-5.158-7.874-11.578-14.188-19.344-18.958c-7.762-4.727-16.552-8.116-26.424-10.125
				c-6.423-1.306-13.003-2.027-19.662-2.477v-23.078h-19.961v22.951c-7.339,0.393-14.61,1.083-21.723,2.399
				c-9.998,1.881-18.996,5.158-26.986,9.775c-8.006,4.619-14.447,11.004-19.325,19.105c-4.859,8.156-7.288,18.342-7.288,30.583
				c0,8.499,1.738,15.688,5.239,21.536c3.498,5.91,8.113,10.783,13.865,14.672c5.762,3.869,12.313,6.979,19.708,9.367
				c7.374,2.414,14.932,4.396,22.682,6.199c4.875,1.02,9.47,2.025,13.827,3.018v50.516c-1.168-0.221-2.346-0.361-3.518-0.651
				c-4.881-1.267-9.182-3.178-12.937-5.808c-3.766-2.613-6.808-6.024-9.187-10.138c-2.396-4.133-3.584-9.083-3.584-14.796H450.19
				c0.507,12.711,3.446,23.498,8.821,32.233c5.364,8.763,12.226,15.858,20.628,21.206c8.361,5.38,17.934,9.21,28.674,11.436
				c7.117,1.479,14.387,2.298,21.714,2.827v23.075h19.969v-23.001c8.025-0.45,15.959-1.287,23.759-2.963
				c10.626-2.2,20.094-5.974,28.342-11.226c8.225-5.231,14.911-12.203,20.036-20.798c5.148-8.657,7.697-19.341,7.697-32.085
				c0-9.008-1.747-16.553-5.262-22.674C621.068,632.862,616.475,627.728,610.73,623.622z M526.891,597.356
				c-5.623-1.872-10.191-4.33-13.664-7.307c-3.525-2.997-5.238-6.883-5.238-11.641c0-3.993,0.969-7.174,2.99-9.532
				c1.975-2.397,4.412-4.192,7.317-5.439c2.862-1.255,6.041-2.076,9.537-2.435c0.798-0.091,1.447-0.08,2.218-0.139v37.438
				C528.997,597.981,527.863,597.667,526.891,597.356z M573.218,680.628c-2.271,3.12-5.076,5.614-8.468,7.469
				c-3.356,1.89-7.095,3.262-11.226,4.148c-1.188,0.256-2.35,0.391-3.545,0.587v-45.858c3.949,1.209,7.566,2.475,10.636,3.834
				c5.125,2.259,9.061,4.813,11.825,7.697c2.736,2.865,4.113,6.316,4.113,10.313C576.568,673.544,575.489,677.489,573.218,680.628z"
				/>
		</g>
	</g>
</g>
</svg>
